<svg xmlns="http://www.w3.org/2000/svg" width="359.124" height="293.007" viewBox="0 0 359.124 293.007">
  <g id="Group_3" data-name="Group 3" transform="translate(-1259 -1062.172)">
    <g id="logo" transform="translate(1083.3 984.172)">
      <path id="Path_1" data-name="Path 1" d="M534.824,224.537c0-21.8-29.793-42.452-75.47-55.262,10.541-42.653,5.856-76.588-14.787-87.453a34.437,34.437,0,0,0-16.4-3.756V93.023a18.227,18.227,0,0,1,8.345,1.744c9.955,5.231,14.274,25.149,10.907,50.768a190.746,190.746,0,0,1-3.733,19.717,384.454,384.454,0,0,0-46.483-7.31,335.657,335.657,0,0,0-30.452-33.532c23.864-20.321,46.263-31.453,61.489-31.453V78c-20.13,0-46.483,13.145-73.128,35.947-26.645-22.668-53-35.679-73.128-35.679V93.224c15.153,0,37.625,11.066,61.489,31.252a324.779,324.779,0,0,0-30.232,33.465,370.414,370.414,0,0,0-46.556,7.377,187.039,187.039,0,0,1-3.806-19.449c-3.44-25.619.805-45.537,10.687-50.835a17.515,17.515,0,0,1,8.418-1.744V78.335a35.032,35.032,0,0,0-16.543,3.756c-20.569,10.865-25.181,44.732-14.567,87.252-45.531,12.876-75.177,33.465-75.177,55.194,0,21.8,29.793,42.452,75.47,55.262-10.541,42.653-5.856,76.588,14.787,87.453a34.531,34.531,0,0,0,16.47,3.756c20.13,0,46.483-13.145,73.128-35.947,26.645,22.668,53,35.679,73.128,35.679a35.032,35.032,0,0,0,16.543-3.756c20.569-10.865,25.181-44.732,14.567-87.252,45.385-12.809,75.031-33.465,75.031-55.194ZM439.517,179.8c-2.708,8.651-6.076,17.571-9.882,26.491-3-5.365-6.149-10.73-9.589-16.1-3.367-5.365-6.954-10.6-10.541-15.693,10.395,1.408,20.423,3.152,30.012,5.3Zm-33.526,71.424c-5.71,9.054-11.566,17.638-17.642,25.619-10.907.872-21.96,1.341-33.087,1.341-11.053,0-22.107-.469-32.94-1.274-6.076-7.981-12-16.5-17.715-25.485-5.563-8.786-10.614-17.705-15.226-26.692,4.539-8.987,9.663-17.973,15.153-26.759,5.71-9.054,11.566-17.638,17.641-25.619,10.907-.872,21.96-1.341,33.087-1.341,11.053,0,22.107.469,32.94,1.274,6.076,7.981,12,16.5,17.715,25.485,5.563,8.786,10.614,17.705,15.226,26.692-4.612,8.987-9.663,17.973-15.153,26.759Zm23.644-8.718a271.471,271.471,0,0,1,10.1,26.692c-9.589,2.146-19.691,3.957-30.159,5.365,3.587-5.164,7.174-10.462,10.541-15.894,3.367-5.365,6.515-10.8,9.516-16.163Zm-74.226,71.558a285.242,285.242,0,0,1-20.35-21.461c6.588.268,13.323.469,20.13.469,6.881,0,13.689-.134,20.35-.469A269.682,269.682,0,0,1,355.409,314.069Zm-54.462-39.5c-10.395-1.408-20.423-3.152-30.012-5.3,2.708-8.651,6.076-17.571,9.882-26.491,3,5.365,6.149,10.73,9.589,16.1S297.36,269.47,300.947,274.567Zm54.1-139.562a285.25,285.25,0,0,1,20.35,21.461C368.8,156.2,362.07,156,355.262,156c-6.881,0-13.689.134-20.35.469A269.7,269.7,0,0,1,355.043,135.005Zm-54.169,39.5c-3.587,5.164-7.174,10.462-10.541,15.894-3.367,5.365-6.515,10.73-9.516,16.1a271.487,271.487,0,0,1-10.1-26.692c9.589-2.079,19.691-3.89,30.159-5.3Zm-66.247,83.965c-25.913-10.127-42.676-23.406-42.676-33.935s16.763-23.875,42.676-33.935c6.3-2.481,13.176-4.695,20.277-6.774a305.341,305.341,0,0,0,16.47,40.843,300.89,300.89,0,0,0-16.251,40.641C247.876,263.233,241,260.953,234.627,258.472Zm39.382,95.836c-9.955-5.231-14.274-25.149-10.907-50.768a190.741,190.741,0,0,1,3.733-19.717,384.454,384.454,0,0,0,46.483,7.31,335.656,335.656,0,0,0,30.452,33.533c-23.864,20.321-46.263,31.453-61.489,31.453A18.767,18.767,0,0,1,274.009,354.308Zm173.633-51.1c3.44,25.619-.805,45.537-10.687,50.835a17.515,17.515,0,0,1-8.418,1.744c-15.153,0-37.625-11.066-61.489-31.252a324.785,324.785,0,0,0,30.232-33.465,370.414,370.414,0,0,0,46.556-7.377A173.551,173.551,0,0,1,447.642,303.2Zm28.182-44.732c-6.3,2.481-13.176,4.695-20.277,6.774a305.356,305.356,0,0,0-16.47-40.843,300.9,300.9,0,0,0,16.251-40.641c7.247,2.079,14.128,4.359,20.569,6.841,25.913,10.127,42.676,23.406,42.676,33.935-.073,10.529-16.836,23.875-42.749,33.935ZM281.915,78.268Z" transform="translate(0)" fill="#de1010"/>
      <circle id="Ellipse_1" data-name="Ellipse 1" cx="45.7" cy="45.7" r="45.7" transform="translate(309.495 178.833)" fill="#de1010"/>
      <path id="Path_2" data-name="Path 2" d="M520.5,78.1Z" transform="translate(-92.403)" fill="#de1010"/>
    </g>
    <text id="EMS" transform="translate(1396 1185)" fill="#f9f9f9" font-size="36" font-family="Verdana-Bold, Verdana" font-weight="700" letter-spacing="-0.024em"><tspan x="0" y="36">EMS</tspan></text>
  </g>
</svg>
